<?xml version="1.0" encoding="UTF-8" standalone="no"?>
<svg width="243px" height="242px" viewBox="0 0 243 242" version="1.1" xmlns="http://www.w3.org/2000/svg" xmlns:xlink="http://www.w3.org/1999/xlink" xmlns:sketch="http://www.bohemiancoding.com/sketch/ns">
    <!-- Generator: Sketch 3.3.1 (12002) - http://www.bohemiancoding.com/sketch -->
    <title>Change</title>
    <desc>Created with Sketch.</desc>
    <defs></defs>
    <g id="Page-4" stroke="none" stroke-width="1" fill="none" fill-rule="evenodd" sketch:type="MSPage">
        <g id="Change" sketch:type="MSLayerGroup" transform="translate(0.500000, -0.280000)" fill="#FFD07F">
            <path d="M155.718321,5.68442612 C92.4754708,-13.478191 24.3842954,23.2858102 5.33588677,86.8772273 C-13.6839877,150.37192 22.5581095,217.917882 85.833216,236.908131 C149.698855,256.075709 217.316116,220.271512 236.265275,157.254242 C255.724327,92.5455327 219.899077,25.1310165 155.718321,5.68442612 L155.718321,5.68442612 Z M226.919719,154.987416 C208.966774,211.860199 147.996731,245.774546 88.8367458,227.69202 C29.9000714,210.697024 -4.03075938,148.076572 14.4457255,88.8650403 C32.7671335,30.1482914 92.5499077,-2.36603077 152.837612,14.9414595 C212.157637,31.9711768 245.880044,94.923964 226.919719,154.987416 L226.919719,154.987416 Z" id="Fill-1" sketch:type="MSShapeGroup"></path>
            <path d="M107.381465,124.133531 L107.316953,124.133531 L102.575321,135.353577 L111.898545,135.353577 L107.381465,124.133531" id="Fill-2" sketch:type="MSShapeGroup"></path>
            <path d="M207.362658,59.2127721 C185.679183,25.9048128 137.904325,4.78166386 91.1988775,18.8377219 C44.0269588,33.0326665 11.3106905,73.7462525 13.8986142,127.841305 C16.2942425,177.883848 51.7721206,218.276259 103.52191,227.208397 C152.965396,235.742477 201.564022,206.855324 220.221637,162.029706 C234.466383,127.806583 227.278257,86.0736697 212.99133,69.5089742 C213.181145,69.3899286 213.377162,69.2113602 213.597991,69.0538729 C213.287838,68.6434136 213.053361,68.0915878 212.645199,67.8869782 C212.410722,67.7691727 211.893386,68.2131135 211.503833,68.4040824 C211.703572,68.7165771 211.877258,69.0526328 212.110494,69.3390862 C212.158878,69.398609 212.206021,69.4382909 212.251924,69.4792128 C212.084441,69.8723112 211.92192,70.2592093 211.835077,70.6572679 C210.156524,78.284865 206.576108,82.0819228 200.502055,82.6337486 C194.292775,83.197975 189.553625,80.249117 187.02401,73.2167478 C185.764785,69.7173039 183.619761,70.3832151 181.221652,70.5630235 C166.192837,71.6877562 151.164022,72.8000882 136.137689,73.9508621 C105.251328,76.3156528 74.3699298,78.733766 43.481088,81.0514345 C36.9281575,81.5424975 32.5661538,78.2873451 32.2708874,73.0952221 C31.9718991,67.8361358 35.2607705,64.315611 41.5891495,63.6112581 C48.561408,62.8349817 55.5572382,62.1975919 62.560512,61.7958131 C68.6817083,61.4436366 72.7844234,64.4904592 72.6032935,70.081881 C72.4494572,74.8089823 74.6254966,74.4543257 77.801472,74.2063141 C100.858309,72.4032697 123.921349,70.6907495 146.981908,68.9311071 C163.660741,67.6575675 180.338334,66.3505463 197.017167,65.0670862 C198.802412,64.9294398 201.088866,64.1804447 201.204244,67.0958212 C201.305974,69.6367001 199.055498,69.0340319 197.554353,69.2746032 C196.537049,69.4370508 195.498654,69.4928534 194.467702,69.547416 C190.02878,69.7842671 190.472921,72.1217765 192.26685,74.8486642 C194.900677,78.8490914 200.433822,79.6476888 204.264842,76.6839501 C208.283195,73.5763646 208.476731,68.2069132 204.641989,64.1878851 C203.587466,63.0817533 201.307215,62.7667785 202.098727,60.534674 C203.061445,57.8251472 205.400005,60.4094282 207.362658,59.2127721 L207.362658,59.2127721 Z M184.215257,120.650208 L198.569177,120.650208 L198.569177,123.166286 L186.92352,123.166286 L186.92352,130.322661 L197.795033,130.322661 L197.795033,132.838739 L186.92352,132.838739 L186.92352,140.962359 L199.149785,140.962359 L199.149785,143.478437 L184.215257,143.478437 L184.215257,120.650208 L184.215257,120.650208 Z M154.554624,127.148113 C155.188578,125.674924 156.064453,124.418745 157.184729,123.375856 C158.301282,122.332967 159.602688,121.521969 161.086464,120.941622 C162.57024,120.361275 164.171874,120.071101 165.892608,120.071101 C167.397474,120.071101 168.844032,120.295552 170.23104,120.748173 C171.618048,121.199554 172.859904,121.97335 173.956608,123.069562 L171.92448,125.196261 C171.150336,124.359222 170.20995,123.713152 169.10208,123.263011 C167.99421,122.81163 166.860288,122.585939 165.699072,122.585939 C164.386501,122.585939 163.173179,122.82279 162.054144,123.294012 C160.93635,123.767714 159.962466,124.422465 159.134976,125.260744 C158.307486,126.100264 157.661125,127.09975 157.199616,128.259205 C156.736866,129.421139 156.506112,130.688478 156.506112,132.064943 C156.506112,133.417846 156.736866,134.676505 157.199616,135.837199 C157.661125,136.997894 158.307486,138.002341 159.134976,138.85054 C159.962466,139.70122 160.958681,140.362171 162.118656,140.834633 C163.281113,141.307096 164.558946,141.543947 165.95712,141.543947 C166.881378,141.543947 167.849058,141.429861 168.86016,141.205411 C169.871262,140.97972 170.79552,140.651105 171.634176,140.222045 L171.634176,133.225637 L166.376448,133.225637 L166.376448,130.710799 L174.344921,130.710799 L174.344921,141.930845 C173.03235,142.662479 171.650304,143.199424 170.198784,143.54168 C168.747264,143.886416 167.279616,144.057544 165.79584,144.057544 C164.011835,144.057544 162.376704,143.768611 160.892928,143.187024 C159.410393,142.607916 158.123874,141.790718 157.038336,140.737909 C155.951557,139.6851 155.109179,138.42272 154.50624,136.949531 C153.904542,135.477583 153.603072,133.849386 153.603072,132.064943 C153.603072,130.259418 153.92067,128.620062 154.554624,127.148113 L154.554624,127.148113 Z M125.638361,120.650208 L129.057497,120.650208 L142.282457,139.609456 L142.346969,139.609456 L142.346969,120.650208 L145.056473,120.650208 L145.056473,143.478437 L141.636096,143.478437 L128.412377,124.51919 L128.346624,124.51919 L128.346624,143.478437 L125.638361,143.478437 L125.638361,120.650208 L125.638361,120.650208 Z M106.155737,120.650208 L108.703961,120.650208 L118.414257,143.478437 L115.251929,143.478437 L112.929497,137.867174 L101.512113,137.867174 L99.1561846,143.478437 L96.0918646,143.478437 L106.155737,120.650208 L106.155737,120.650208 Z M71.2559852,120.650208 L73.9642486,120.650208 L73.9642486,130.322661 L86.1582572,130.322661 L86.1582572,120.650208 L88.8677612,120.650208 L88.8677612,143.478437 L86.1582572,143.478437 L86.1582572,132.838739 L73.9642486,132.838739 L73.9642486,143.478437 L71.2559852,143.478437 L71.2559852,120.650208 L71.2559852,120.650208 Z M43.8867692,127.357682 C44.4562117,125.895654 45.2576492,124.627075 46.2898412,123.551944 C47.3220332,122.478054 48.5477612,121.629854 49.9670252,121.006105 C51.3862892,120.382356 52.9457428,120.071101 54.6441452,120.071101 C56.1924332,120.071101 57.6811717,120.350114 59.1116012,120.90814 C60.5420308,121.468647 61.7404652,122.381329 62.7081452,123.648669 L60.3534572,125.357469 C59.6649157,124.433626 58.8150942,123.741673 57.8052332,123.279131 C56.7953723,122.81783 55.7408492,122.585939 54.6441452,122.585939 C53.3749957,122.585939 52.2088172,122.843871 51.1443692,123.359735 C50.0811618,123.875599 49.1606252,124.568792 48.3864812,125.439313 C47.6123372,126.309833 47.0106388,127.319241 46.5801452,128.470015 C46.1496517,129.619548 45.9350252,130.818684 45.9350252,132.064943 C45.9350252,133.398005 46.1496517,134.639303 46.5801452,135.787597 C47.0106388,136.938371 47.6061342,137.937858 48.3715938,138.786057 C49.1333317,139.636737 50.0476652,140.307609 51.1121132,140.802392 C52.1765612,141.297175 53.3539052,141.543947 54.6441452,141.543947 C56.0423188,141.543947 57.2891372,141.268654 58.3858412,140.721788 C59.4837858,140.173682 60.4390597,139.383765 61.2566252,138.352037 L63.2887532,140.060837 C62.2565612,141.436062 61.0147052,142.446709 59.5631852,143.091539 C58.1116652,143.736369 56.4715717,144.057544 54.6441452,144.057544 C53.0102548,144.057544 51.4830572,143.75621 50.0637932,143.156022 C48.6445292,142.554594 47.4138388,141.721275 46.3704812,140.656065 C45.3271237,139.593335 44.5095582,138.329716 43.9190252,136.867688 C43.3272517,135.406899 43.0319852,133.805984 43.0319852,132.064943 C43.0319852,130.388384 43.3160862,128.818471 43.8867692,127.357682 L43.8867692,127.357682 Z" id="Fill-3" sketch:type="MSShapeGroup"></path>
            <path d="M39.7381514,68.3631605 C38.0323052,68.5925713 37.0025945,69.8388296 36.7482683,71.4261039 C36.6639065,71.9543687 36.6651471,72.5210752 36.7569526,73.1014224 C36.8016148,73.3866357 36.8648862,73.6619286 36.9455262,73.9248209 C37.5124874,75.763827 38.9453982,76.9939646 40.9824886,76.8501179 C49.0018265,76.2834113 57.0137206,75.571618 65.0020431,74.6812563 C65.5578388,74.6192534 66.0640098,74.4667263 66.5106314,74.2360755 C66.7351828,74.1207501 66.9436062,73.9855837 67.1359015,73.8318165 C68.0961378,73.0642206 68.6482117,71.8378032 68.6047902,70.3236923 C68.5390375,67.9812226 67.2277071,66.5253945 63.7080812,65.6623141 C56.5050683,66.4485109 48.0986585,67.2347077 39.7381514,68.3631605" id="Fill-4" sketch:type="MSShapeGroup"></path>
        </g>
    </g>
</svg>